<svg width="500" height="486" viewBox="0 0 500 486" fill="none" xmlns="http://www.w3.org/2000/svg">
<path d="M37.13 13.2298C45.7546 1.75098 62.395 1.82404 72.5646 11.9612L185.392 124.43C220.203 159.131 239.795 206.223 239.853 255.355C239.906 300.831 223.222 344.604 193.197 378.448C189.188 382.967 182.235 382.955 177.956 378.69L54.4581 255.591C19.647 220.891 0.0576548 173.794 0.000126612 124.662C-0.0471105 84.2481 13.1247 45.1797 37.13 13.2298ZM423.706 11.2083C433.876 1.0712 450.515 0.999029 459.14 12.4778C483.145 44.4279 496.317 83.496 496.27 123.91C496.212 173.042 476.623 220.139 441.812 254.839L318.315 377.936C314.036 382.201 307.083 382.213 303.073 377.694C273.049 343.85 256.364 300.078 256.417 254.601C256.475 205.469 276.064 158.373 310.875 123.672L423.706 11.2083Z" fill="url(#paint0_radial_86_548)"/>
<path d="M94.9505 477.494C84.8031 487.656 68.2083 487.754 59.1358 476.622C34.012 445.798 17.2927 410.246 11.8267 375.274C5.85491 337.067 13.754 302.362 33.843 277.252C37.6176 272.534 44.5962 272.559 48.8753 276.824L164.623 392.203C168.909 396.476 168.917 403.417 164.641 407.699L94.9505 477.494Z" fill="url(#paint1_linear_86_548)"/>
<path d="M437.178 475.853C428.106 486.984 411.511 486.887 401.363 476.725L331.673 406.93C327.397 402.647 327.405 395.707 331.691 391.434L447.439 276.055C451.718 271.789 458.696 271.765 462.471 276.483C482.56 301.593 490.459 336.297 484.487 374.505C479.021 409.477 462.302 445.029 437.178 475.853Z" fill="url(#paint2_linear_86_548)"/>
<defs>
<radialGradient id="paint0_radial_86_548" cx="0" cy="0" r="1" gradientUnits="userSpaceOnUse" gradientTransform="translate(249.154 233.52) rotate(81.2234) scale(471.253 438.021)">
<stop stop-color="#AA95FF"/>
<stop offset="0.545752" stop-color="#9176FF"/>
<stop offset="0.696007" stop-color="#7F62F3"/>
</radialGradient>
<linearGradient id="paint1_linear_86_548" x1="219.119" y1="381.712" x2="64.4916" y2="529.92" gradientUnits="userSpaceOnUse">
<stop offset="0.15" stop-color="#AA95FF"/>
<stop offset="0.65" stop-color="#9176FF"/>
<stop offset="0.93" stop-color="#7F62F3"/>
</linearGradient>
<linearGradient id="paint2_linear_86_548" x1="283.533" y1="377.408" x2="438.16" y2="525.615" gradientUnits="userSpaceOnUse">
<stop offset="0.147972" stop-color="#AA95FF"/>
<stop offset="0.64954" stop-color="#9176FF"/>
<stop offset="0.931715" stop-color="#7F62F3"/>
</linearGradient>
</defs>
</svg>
